<svg id="Filled" height="512" viewBox="0 0 512 512" width="512" xmlns="http://www.w3.org/2000/svg"><path d="m176 152v32h32v-32a96 96 0 0 1 96-96 96 96 0 0 1 96 96v32h32v-32a128 128 0 0 0 -128-128 128 128 0 0 0 -128 128z" fill="#c7312e"/><path d="m427.192 488h-246.384a32 32 0 0 1 -31.824-28.65l-28.984-275.35h368l-28.984 275.35a32 32 0 0 1 -31.824 28.65z" fill="#a82a27"/><path d="m277.444 488h-218.888a32 32 0 0 1 -31.906-34.454l11.077-144a32 32 0 0 1 31.906-29.546h196.734a32 32 0 0 1 31.906 29.546l11.077 144a32 32 0 0 1 -31.906 34.454z" fill="#eb423f"/><path d="m277.44 488h-218.88a32 32 0 0 1 -31.91-34.45l2.27-29.55h278.16l2.27 29.55a32 32 0 0 1 -31.91 34.45z" fill="#c7312e"/><g fill="#f7b030"><path d="m144 280h48v32h-48z"/><path d="m280 216h48v32h-48z"/><path d="m96 280h-72v-32h32l40 16z"/></g><path d="m216 248h-48v-64l24-16 24 16z" fill="#eb423f"/><path d="m360 328 40-32h48l40 32v160h-128z" fill="#499154"/><path d="m440 248h-48v-64l24-16 24 16z" fill="#eb423f"/><path d="m495.956 184.837a8 8 0 0 0 -7.956-8.837h-45.578l-2.422-1.615v-22.385c0-74.99-61.009-136-136-136a136 136 0 0 0 -136 136v22.385l-2.422 1.615h-45.578a8 8 0 0 0 -7.956 8.837l9.17 87.163h-17.214v-8a8 8 0 0 0 -5.029-7.428l-40-16a8 8 0 0 0 -2.971-.572h-32a8 8 0 0 0 -8 8v32a8 8 0 0 0 8 8h13.708a39.684 39.684 0 0 0 -7.957 20.933l-11.077 144a40 40 0 0 0 39.882 43.067h429.444a8 8 0 0 0 8-8v-160a8 8 0 0 0 -3-6.247l-11.241-8.993.727.077zm-319.956 3.444 16-10.666 16 10.666v51.719h-32zm42.422-12.281-2.422-1.615v-22.385a88 88 0 0 1 176 0v22.385l-2.422 1.615zm181.578 12.281 16-10.666 16 10.666v51.719h-32zm-216-36.281a120 120 0 0 1 240 0v11.719l-3.562-2.375a8 8 0 0 0 -8.876 0l-3.562 2.375v-11.719a104 104 0 0 0 -208 0v11.719l-3.562-2.375a8 8 0 0 0 -8.876 0l-3.562 2.375zm-40 168h48a8 8 0 0 0 8-8v-24h66.367a24.11 24.11 0 0 1 23.933 22.159l8.138 105.841h-260.876l8.138-105.841a24.11 24.11 0 0 1 23.933-22.159h66.367v24a8 8 0 0 0 8 8zm40-16h-32v-16h32zm-152-48h22.459l33.541 13.416v2.584h-56zm245.44 224h-218.884a24 24 0 0 1 -23.929-25.841l1.705-22.159h263.336l1.7 22.159a24 24 0 0 1 -23.924 25.841zm202.56 0h-112v-148.155l34.806-27.845h42.388l34.806 27.845zm-27-190.247a8 8 0 0 0 -5-1.753h-48a8 8 0 0 0 -5 1.753l-40 32a8 8 0 0 0 -3 6.247v152h-42.559a40.135 40.135 0 0 0 7.885-27.067l-11.077-144a40.185 40.185 0 0 0 -39.882-36.933h-129.067l-8.417-80h31.117v56a8 8 0 0 0 8 8h48a8 8 0 0 0 8-8v-56h160v56a8 8 0 0 0 8 8h48a8 8 0 0 0 8-8v-56h31.114l-11.514 109.432z"/><path d="m328 208h-48a8 8 0 0 0 -8 8v32a8 8 0 0 0 8 8h48a8 8 0 0 0 8-8v-32a8 8 0 0 0 -8-8zm-8 32h-32v-16h32z"/><path d="m424 384a8.009 8.009 0 0 1 8 8 8 8 0 0 0 16 0 24.039 24.039 0 0 0 -16-22.624v-9.376a8 8 0 0 0 -16 0v9.376a24 24 0 0 0 8 46.624 8 8 0 1 1 -8 8 8 8 0 0 0 -16 0 24.039 24.039 0 0 0 16 22.624v9.376a8 8 0 0 0 16 0v-9.376a24 24 0 0 0 -8-46.624 8 8 0 0 1 0-16z"/><circle cx="424" cy="328" r="8"/></svg>